# xmcd
#
# Track frame offsets:
#	150
#	14595
#	31365
#	49555
#	78787
#	93612
#	105672
#	124565
#
# Disc length: 1905 seconds
#
# Revision: 1
# Processed by: cddbd v1.5.1PL0 Copyright (c) Steve Scherf et al.
# Submitted via: audiograbber 1.82.02
#
DISCID=58076f08
DTITLE=Black and White - Hepcat
DYEAR=1997
DGENRE=R&B
TTITLE0=Hepcat
TTITLE1=Alimony Blues
TTITLE2=The Wave
TTITLE3=Latest In The Evening
TTITLE4=Swinging Like A Big Horn Band
TTITLE5=Carmelita
TTITLE6=I've Been Down Before
TTITLE7=Texas Swing
EXTD=
EXTT0=
EXTT1=
EXTT2=
EXTT3=
EXTT4=
EXTT5=
EXTT6=
EXTT7=
PLAYORDER=
